<?xml version="1.0" encoding="iso-8859-1"?>
<!-- Generator: Adobe Illustrator 19.0.0, SVG Export Plug-In . SVG Version: 6.00 Build 0)  -->
<svg version="1.1" id="Capa_1" xmlns="http://www.w3.org/2000/svg" xmlns:xlink="http://www.w3.org/1999/xlink" x="0px" y="0px"
	 viewBox="0 0 511.999 511.999" style="enable-background:new 0 0 511.999 511.999;" xml:space="preserve" fill="#999999">
<g>
	<g>
		<path d="M448.167,37.366c-49.819-49.819-130.451-49.823-180.274,0L74.077,231.183c-5.857,5.857-5.857,15.352,0,21.208
			c5.856,5.857,15.352,5.857,21.208,0L289.102,58.575c38.099-38.098,99.756-38.099,137.857,0c38.098,38.099,38.099,99.757,0,137.857
			L158.912,464.479c-23.39,23.39-61.446,23.388-84.835,0c-23.389-23.389-23.389-61.446,0-84.835L331.52,122.201
			c8.792-8.791,23.02-8.792,31.813,0c8.793,8.792,8.792,23.02,0,31.813L116.494,400.853c-5.857,5.857-5.857,15.352,0,21.208
			c5.856,5.857,15.352,5.857,21.208,0l246.838-246.838c20.514-20.513,20.517-53.715,0-74.23c-20.465-20.465-53.764-20.466-74.23,0
			L52.868,358.435c-35.084,35.083-35.084,92.168,0,127.252c17.541,17.541,40.584,26.312,63.626,26.312
			c23.042,0,46.084-8.771,63.625-26.312L448.167,217.64C497.869,167.938,497.869,87.067,448.167,37.366z"/>
	</g>
</g>
<g>
</g>
<g>
</g>
<g>
</g>
<g>
</g>
<g>
</g>
<g>
</g>
<g>
</g>
<g>
</g>
<g>
</g>
<g>
</g>
<g>
</g>
<g>
</g>
<g>
</g>
<g>
</g>
<g>
</g>
</svg>
